<?xml version="1.0" standalone="no"?>
<!DOCTYPE svg PUBLIC "-//W3C//DTD SVG 20010904//EN"
 "http://www.w3.org/TR/2001/REC-SVG-20010904/DTD/svg10.dtd">
<svg version="1.0" xmlns="http://www.w3.org/2000/svg"
 width="18.000000pt" height="19.000000pt" viewBox="0 0 18.000000 19.000000"
 preserveAspectRatio="xMidYMid meet">
<metadata>
Created by potrace 1.16, written by Peter Selinger 2001-2019
</metadata>
<g transform="translate(0.000000,19.000000) scale(0.100000,-0.100000)"
fill="#000000" stroke="none">
<path d="M38 150 c-47 -48 -49 -80 -9 -121 40 -39 82 -39 122 0 41 41 38 74
-11 122 -21 21 -45 39 -52 38 -7 0 -30 -18 -50 -39z m52 -20 c10 0 20 5 22 12
7 20 48 -29 48 -57 0 -57 -79 -86 -120 -45 -11 11 -20 31 -20 45 0 28 41 77
48 57 2 -7 12 -12 22 -12z"/>
</g>
</svg>
