<?xml version="1.0" standalone="no"?>
<!DOCTYPE svg PUBLIC "-//W3C//DTD SVG 20010904//EN"
 "http://www.w3.org/TR/2001/REC-SVG-20010904/DTD/svg10.dtd">
<svg version="1.0" xmlns="http://www.w3.org/2000/svg"
 width="42.000000pt" height="23.000000pt" viewBox="0 0 42.000000 23.000000"
 preserveAspectRatio="xMidYMid meet">
<metadata>
Created by potrace 1.16, written by Peter Selinger 2001-2019
</metadata>
<g transform="translate(0.000000,23.000000) scale(0.100000,-0.100000)"
fill="#000000" stroke="none">
<path d="M172 197 c-38 -38 -42 -75 -9 -105 30 -28 68 -28 95 1 32 34 28 68
-13 105 -19 18 -36 32 -37 31 -2 0 -18 -14 -36 -32z m31 -19 c4 -10 8 -10 15
1 9 12 13 12 26 2 19 -16 21 -62 4 -79 -15 -15 -61 -15 -76 0 -7 7 -12 24 -12
38 0 38 32 66 43 38z"/>
<path d="M32 127 c-38 -38 -42 -75 -9 -105 30 -28 68 -28 95 1 32 34 28 68
-13 105 -19 18 -36 32 -37 31 -2 0 -18 -14 -36 -32z m31 -19 c4 -10 8 -10 15
1 15 21 42 -4 42 -38 0 -34 -17 -51 -50 -51 -33 0 -50 17 -50 50 0 38 32 66
43 38z"/>
<path d="M312 127 c-38 -38 -42 -75 -9 -105 30 -28 68 -28 95 1 32 34 28 68
-13 105 -19 18 -36 32 -37 31 -2 0 -18 -14 -36 -32z m31 -19 c4 -10 8 -10 15
1 15 21 42 -4 42 -38 0 -34 -17 -51 -50 -51 -33 0 -50 17 -50 50 0 38 32 66
43 38z"/>
</g>
</svg>
