<?xml version="1.0" standalone="no"?>
<!DOCTYPE svg PUBLIC "-//W3C//DTD SVG 20010904//EN"
 "http://www.w3.org/TR/2001/REC-SVG-20010904/DTD/svg10.dtd">
<svg version="1.0" xmlns="http://www.w3.org/2000/svg"
 width="28.000000pt" height="31.000000pt" viewBox="0 0 28.000000 31.000000"
 preserveAspectRatio="xMidYMid meet">
<metadata>
Created by potrace 1.16, written by Peter Selinger 2001-2019
</metadata>
<g transform="translate(0.000000,31.000000) scale(0.100000,-0.100000)"
fill="#000000" stroke="none">
<path d="M132 297 c-35 -11 -82 -49 -82 -67 0 -14 26 -12 60 5 15 8 53 18 84
21 l56 7 0 -132 c0 -110 2 -131 15 -131 13 0 15 24 15 155 l0 155 -57 -1 c-32
-1 -73 -6 -91 -12z m72 -12 c-4 -8 -11 -15 -18 -16 -30 -2 -61 -10 -73 -20 -7
-6 -13 -8 -13 -3 0 5 -4 2 -10 -6 -5 -8 -12 -11 -16 -8 -8 8 21 39 39 42 6 1
18 5 25 9 6 5 17 5 22 2 6 -3 10 -1 10 4 0 6 9 11 20 11 13 0 18 -5 14 -15z
m46 -2 c0 -14 -2 -15 -9 -4 -7 11 -9 11 -13 0 -3 -8 -9 -11 -13 -7 -10 9 3 28
21 28 8 0 14 -8 14 -17z"/>
<path d="M71 174 c-11 -15 -18 -30 -15 -35 3 -5 0 -8 -7 -7 -7 2 -22 -19 -33
-45 -31 -74 -21 -82 102 -84 124 -2 132 4 106 74 -24 61 -79 123 -109 123 -13
0 -33 -11 -44 -26z m80 -68 c13 8 11 -40 -3 -54 -29 -29 -78 -7 -78 34 0 18 6
23 33 26 17 2 34 0 35 -5 2 -4 8 -5 13 -1z"/>
<path d="M108 63 c7 -3 16 -2 19 1 4 3 -2 6 -13 5 -11 0 -14 -3 -6 -6z"/>
</g>
</svg>
