<?xml version="1.0" standalone="no"?>
<!DOCTYPE svg PUBLIC "-//W3C//DTD SVG 20010904//EN"
 "http://www.w3.org/TR/2001/REC-SVG-20010904/DTD/svg10.dtd">
<svg version="1.0" xmlns="http://www.w3.org/2000/svg"
 width="15.000000pt" height="20.000000pt" viewBox="0 0 15.000000 20.000000"
 preserveAspectRatio="xMidYMid meet">
<metadata>
Created by potrace 1.16, written by Peter Selinger 2001-2019
</metadata>
<g transform="translate(0.000000,20.000000) scale(0.100000,-0.100000)"
fill="#000000" stroke="none">
<path d="M25 175 c-28 -27 -32 -61 -11 -90 7 -11 16 -32 19 -46 12 -49 72 -49
83 -1 4 15 13 36 20 47 21 29 17 63 -11 90 -31 32 -69 32 -100 0z m95 -5 c23
-23 26 -57 6 -85 -7 -11 -15 -28 -17 -38 -2 -10 -8 -17 -13 -17 -5 1 -12 -4
-17 -11 -10 -16 -39 5 -39 30 0 9 -7 25 -15 35 -32 43 -2 106 50 106 14 0 34
-9 45 -20z"/>
<path d="M40 124 c0 -9 5 -14 12 -12 18 6 21 28 4 28 -9 0 -16 -7 -16 -16z"/>
<path d="M82 128 c6 -18 28 -21 28 -4 0 9 -7 16 -16 16 -9 0 -14 -5 -12 -12z"/>
<path d="M65 90 c-3 -5 1 -10 10 -10 9 0 13 5 10 10 -3 6 -8 10 -10 10 -2 0
-7 -4 -10 -10z"/>
<path d="M50 55 c0 -6 11 -11 25 -11 14 0 25 5 25 11 0 6 -11 11 -25 11 -14 0
-25 -5 -25 -11z"/>
</g>
</svg>
