<?xml version="1.0" standalone="no"?>
<!DOCTYPE svg PUBLIC "-//W3C//DTD SVG 20010904//EN"
 "http://www.w3.org/TR/2001/REC-SVG-20010904/DTD/svg10.dtd">
<svg version="1.0" xmlns="http://www.w3.org/2000/svg"
 width="27.000000pt" height="24.000000pt" viewBox="0 0 27.000000 24.000000"
 preserveAspectRatio="xMidYMid meet">
<metadata>
Created by potrace 1.16, written by Peter Selinger 2001-2019
</metadata>
<g transform="translate(0.000000,24.000000) scale(0.100000,-0.100000)"
fill="#000000" stroke="none">
<path d="M65 228 c-2 -7 -13 -40 -24 -74 -12 -33 -21 -72 -21 -87 0 -14 -4
-29 -10 -32 -5 -3 -10 -12 -10 -19 0 -9 16 -10 63 -5 34 4 74 10 88 13 14 4
44 1 69 -8 51 -17 70 -12 22 6 -18 7 -32 18 -32 26 0 7 -6 15 -14 18 -8 3 -17
23 -21 44 -4 21 -17 50 -30 64 -13 14 -26 35 -30 46 -7 22 -43 28 -50 8z m30
-8 c-3 -5 -1 -10 6 -10 7 0 10 -3 6 -6 -3 -3 5 -16 18 -28 22 -20 32 -44 39
-89 1 -9 11 -24 22 -32 18 -14 18 -15 -8 -11 -16 3 -28 0 -28 -6 0 -6 -9 -8
-20 -5 -11 3 -20 0 -20 -6 0 -7 -4 -6 -9 3 -12 18 -4 33 12 23 9 -5 9 -3 1 8
-6 8 -10 21 -9 29 2 10 -6 17 -19 18 -16 1 -17 -1 -7 -8 17 -10 23 -38 11 -45
-5 -3 -7 -12 -4 -19 3 -9 -6 -13 -30 -14 -33 -1 -34 0 -26 28 4 15 6 31 3 33
-2 3 1 16 8 29 7 12 12 27 11 31 -1 4 5 21 13 37 9 17 12 30 8 30 -5 0 -1 5 7
10 19 12 23 12 15 0z"/>
<path d="M77 187 c-3 -8 1 -14 8 -14 7 0 11 6 8 14 -6 16 -10 16 -16 0z"/>
<path d="M110 174 c0 -5 7 -18 15 -28 8 -11 15 -16 15 -10 0 5 -7 18 -15 28
-8 11 -15 16 -15 10z"/>
<path d="M67 154 c7 -3 9 -13 6 -22 -4 -13 -2 -13 9 2 15 19 16 19 31 -10 9
-16 16 -24 17 -18 0 20 -27 47 -51 50 -13 2 -19 0 -12 -2z"/>
<path d="M47 106 c-3 -8 0 -20 8 -26 8 -6 11 -19 8 -28 -3 -9 -3 -14 1 -11 13
12 15 49 3 46 -7 -1 -11 6 -9 16 3 21 -4 23 -11 3z"/>
<path d="M141 104 c0 -11 3 -14 6 -6 3 7 2 16 -1 19 -3 4 -6 -2 -5 -13z"/>
<path d="M136 65 c-9 -26 -7 -32 5 -12 6 10 9 21 6 23 -2 3 -7 -2 -11 -11z"/>
</g>
</svg>
