<?xml version="1.0" standalone="no"?>
<!DOCTYPE svg PUBLIC "-//W3C//DTD SVG 20010904//EN"
 "http://www.w3.org/TR/2001/REC-SVG-20010904/DTD/svg10.dtd">
<svg version="1.0" xmlns="http://www.w3.org/2000/svg"
 width="27.000000pt" height="31.000000pt" viewBox="0 0 27.000000 31.000000"
 preserveAspectRatio="xMidYMid meet">
<metadata>
Created by potrace 1.16, written by Peter Selinger 2001-2019
</metadata>
<g transform="translate(0.000000,31.000000) scale(0.100000,-0.100000)"
fill="#000000" stroke="none">
<path d="M107 303 c-4 -3 -7 -37 -7 -75 0 -60 -2 -68 -19 -68 -34 0 -51 -28
-51 -82 0 -35 -5 -54 -16 -63 -13 -9 -2 -10 47 -5 35 4 74 10 86 14 21 7 61
-1 107 -20 14 -5 17 -4 12 4 -4 7 -28 17 -52 23 l-46 12 5 66 c2 36 10 85 17
109 12 40 11 44 -10 67 -22 24 -59 33 -73 18z m62 -27 c21 -23 22 -28 10 -58
-7 -18 -15 -67 -18 -108 -5 -66 -8 -75 -26 -75 -19 0 -20 8 -23 119 -1 66 0
126 2 133 8 20 30 16 55 -11z m-67 -191 l3 -65 -32 0 -33 0 0 55 c0 41 4 56
18 64 34 20 40 12 44 -54z"/>
</g>
</svg>
