<?xml version="1.0" standalone="no"?>
<!DOCTYPE svg PUBLIC "-//W3C//DTD SVG 20010904//EN"
 "http://www.w3.org/TR/2001/REC-SVG-20010904/DTD/svg10.dtd">
<svg version="1.0" xmlns="http://www.w3.org/2000/svg"
 width="38.000000pt" height="34.000000pt" viewBox="0 0 38.000000 34.000000"
 preserveAspectRatio="xMidYMid meet">
<metadata>
Created by potrace 1.16, written by Peter Selinger 2001-2019
</metadata>
<g transform="translate(0.000000,34.000000) scale(0.100000,-0.100000)"
fill="#000000" stroke="none">
<path d="M131 318 c-5 -14 -10 -17 -15 -10 -4 7 -18 12 -31 12 -20 0 -25 -7
-35 -52 -6 -29 -14 -97 -17 -150 -5 -78 -9 -98 -21 -98 -9 0 -13 -2 -10 -5 2
-3 39 2 82 10 111 21 203 20 251 -5 47 -24 56 -20 19 9 -26 20 -28 28 -35 129
-9 134 -13 145 -50 140 -22 -4 -29 -1 -29 13 0 18 -27 29 -73 29 -19 0 -30 -6
-36 -22z m75 6 c18 -5 22 -16 27 -77 4 -40 10 -100 13 -135 l7 -62 -32 0 c-29
0 -31 2 -33 38 l-1 37 -4 -36 c-3 -31 -9 -38 -31 -42 -15 -3 -28 -5 -28 -4 -2
2 23 280 25 285 2 4 35 2 57 -4z m-92 -29 c18 -14 19 -21 8 -131 -6 -64 -13
-118 -15 -120 -2 -2 -18 -7 -35 -10 l-32 -6 0 53 c0 54 16 178 26 212 6 21 22
21 48 2z m187 -50 c4 -22 8 -76 10 -120 l4 -81 -25 4 c-25 4 -26 8 -38 107
-14 114 -10 138 22 133 15 -2 22 -13 27 -43z"/>
</g>
</svg>
