<?xml version="1.0" standalone="no"?>
<!DOCTYPE svg PUBLIC "-//W3C//DTD SVG 20010904//EN"
 "http://www.w3.org/TR/2001/REC-SVG-20010904/DTD/svg10.dtd">
<svg version="1.0" xmlns="http://www.w3.org/2000/svg"
 width="23.000000pt" height="30.000000pt" viewBox="0 0 23.000000 30.000000"
 preserveAspectRatio="xMidYMid meet">
<metadata>
Created by potrace 1.16, written by Peter Selinger 2001-2019
</metadata>
<g transform="translate(0.000000,30.000000) scale(0.100000,-0.100000)"
fill="#000000" stroke="none">
<path d="M146 289 c5 -9 -21 -30 -28 -24 -3 3 -3 -6 -1 -19 5 -24 4 -25 -26
-13 -26 10 -37 9 -59 -4 -26 -14 -27 -19 -30 -104 -3 -82 -1 -92 19 -108 12
-9 31 -17 44 -17 13 0 32 8 44 17 19 16 21 30 23 132 3 96 6 116 21 125 24 15
51 -3 55 -38 4 -33 -21 -60 -48 -51 -28 9 -25 -4 3 -14 17 -6 25 -4 35 11 7
10 16 16 20 14 4 -2 7 12 7 32 0 26 -5 39 -18 44 -10 4 -16 11 -14 15 3 5 -8
8 -23 8 -15 0 -26 -3 -24 -6z m-48 -104 c-3 -3 -9 2 -12 12 -6 14 -5 15 5 6 7
-7 10 -15 7 -18z m-73 -15 c-9 -15 44 -24 70 -12 23 11 23 10 24 -51 0 -34 -4
-68 -8 -76 -10 -15 -71 -24 -71 -10 0 5 -6 8 -12 7 -9 -2 -14 16 -16 61 -3 62
1 91 13 91 4 0 3 -4 0 -10z"/>
<path d="M155 261 c-3 -5 -2 -12 3 -15 5 -3 9 1 9 9 0 17 -3 19 -12 6z"/>
</g>
</svg>
