<?xml version="1.0" standalone="no"?>
<!DOCTYPE svg PUBLIC "-//W3C//DTD SVG 20010904//EN"
 "http://www.w3.org/TR/2001/REC-SVG-20010904/DTD/svg10.dtd">
<svg version="1.0" xmlns="http://www.w3.org/2000/svg"
 width="20.000000pt" height="11.000000pt" viewBox="0 0 20.000000 11.000000"
 preserveAspectRatio="xMidYMid meet">
<metadata>
Created by potrace 1.16, written by Peter Selinger 2001-2019
</metadata>
<g transform="translate(0.000000,11.000000) scale(0.100000,-0.100000)"
fill="#000000" stroke="none">
<path d="M59 99 c-20 -7 -29 -19 -34 -46 -3 -19 -4 -37 -2 -39 3 -3 7 10 11
29 9 47 49 66 71 34 8 -12 15 -29 15 -39 0 -13 8 -18 28 -18 15 0 33 -5 40
-12 7 -7 12 -8 12 -2 0 14 -41 88 -54 96 -15 10 -55 9 -87 -3z"/>
</g>
</svg>
