<?xml version="1.0" standalone="no"?>
<!DOCTYPE svg PUBLIC "-//W3C//DTD SVG 20010904//EN"
 "http://www.w3.org/TR/2001/REC-SVG-20010904/DTD/svg10.dtd">
<svg version="1.0" xmlns="http://www.w3.org/2000/svg"
 width="20.000000pt" height="12.000000pt" viewBox="0 0 20.000000 12.000000"
 preserveAspectRatio="xMidYMid meet">
<metadata>
Created by potrace 1.16, written by Peter Selinger 2001-2019
</metadata>
<g transform="translate(0.000000,12.000000) scale(0.100000,-0.100000)"
fill="#000000" stroke="none">
<path d="M110 112 c0 -5 -15 -16 -34 -24 -32 -16 -34 -15 -55 5 l-21 21 0 -53
c0 -52 1 -54 19 -37 21 19 68 13 88 -11 10 -12 17 -11 53 7 49 25 50 44 1 77
-36 24 -51 29 -51 15z m63 -36 c49 -38 -27 -63 -98 -32 l-30 13 30 16 c36 20
74 21 98 3z m-144 -10 c9 -10 8 -16 -4 -26 -13 -11 -15 -8 -15 14 0 30 3 32
19 12z"/>
</g>
</svg>
