<?xml version="1.0" standalone="no"?>
<!DOCTYPE svg PUBLIC "-//W3C//DTD SVG 20010904//EN"
 "http://www.w3.org/TR/2001/REC-SVG-20010904/DTD/svg10.dtd">
<svg version="1.0" xmlns="http://www.w3.org/2000/svg"
 width="36.000000pt" height="34.000000pt" viewBox="0 0 36.000000 34.000000"
 preserveAspectRatio="xMidYMid meet">
<metadata>
Created by potrace 1.16, written by Peter Selinger 2001-2019
</metadata>
<g transform="translate(0.000000,34.000000) scale(0.100000,-0.100000)"
fill="#000000" stroke="none">
<path d="M123 300 c0 -16 4 -30 9 -30 22 0 3 -17 -35 -31 l-43 -15 11 33 c6
18 14 36 18 39 10 11 8 24 -3 24 -5 0 -10 -7 -10 -15 0 -8 -4 -15 -10 -15 -5
0 -7 7 -3 16 5 14 3 14 -16 3 -25 -16 -27 -29 -5 -29 17 0 16 -22 -1 -62 -6
-15 -2 -18 30 -18 20 0 34 4 30 9 -3 5 0 13 7 17 7 4 10 4 6 -1 -4 -4 1 -19
12 -32 10 -13 16 -31 13 -40 -4 -10 -2 -14 4 -10 7 5 9 0 6 -13 -3 -11 5 -36
16 -56 12 -20 20 -43 17 -50 -3 -8 1 -14 9 -14 9 0 12 6 8 16 -5 14 -1 15 25
10 25 -6 30 -4 28 10 -2 13 -12 18 -32 19 -27 0 -29 3 -29 40 0 24 5 40 12 40
6 0 14 3 17 6 3 3 18 4 34 1 25 -3 28 -8 30 -48 1 -24 -3 -44 -8 -44 -6 0 -10
-5 -10 -11 0 -5 4 -7 10 -4 6 3 10 1 10 -4 0 -9 15 -9 48 -2 2 1 -4 8 -12 17
-21 20 -22 104 -2 104 7 0 19 7 26 15 10 13 10 19 -2 33 -8 9 -18 25 -21 35
-4 10 -15 17 -24 16 -10 -1 -26 1 -36 6 -11 5 -24 2 -36 -9 -23 -21 -34 -20
-54 2 -21 23 -21 32 -1 32 9 0 14 6 11 13 -2 6 -12 11 -21 11 -9 -1 -16 2 -16
7 0 5 -4 9 -8 9 -5 0 -9 -13 -9 -30z m127 -70 c0 -5 -2 -10 -4 -10 -3 0 -8 5
-11 10 -3 6 -1 10 4 10 6 0 11 -4 11 -10z m-50 -38 c0 -5 -7 -17 -15 -28 -14
-18 -14 -17 -4 9 12 27 19 34 19 19z m-39 -25 c-10 -9 -11 -8 -5 6 3 10 9 15
12 12 3 -3 0 -11 -7 -18z"/>
</g>
</svg>
