<?xml version="1.0" standalone="no"?>
<!DOCTYPE svg PUBLIC "-//W3C//DTD SVG 20010904//EN"
 "http://www.w3.org/TR/2001/REC-SVG-20010904/DTD/svg10.dtd">
<svg version="1.0" xmlns="http://www.w3.org/2000/svg"
 width="19.000000pt" height="15.000000pt" viewBox="0 0 19.000000 15.000000"
 preserveAspectRatio="xMidYMid meet">
<metadata>
Created by potrace 1.16, written by Peter Selinger 2001-2019
</metadata>
<g transform="translate(0.000000,15.000000) scale(0.100000,-0.100000)"
fill="#000000" stroke="none">
<path d="M55 136 c-32 -23 -61 -84 -48 -104 14 -23 73 -35 124 -25 57 11 68
31 43 78 -22 42 -50 65 -79 65 -11 0 -29 -6 -40 -14z m35 -32 c0 -32 -2 -35
-27 -32 -34 4 -39 22 -14 47 30 30 41 26 41 -15z m51 15 c25 -25 20 -43 -14
-47 -25 -3 -27 0 -27 32 0 41 11 45 41 15z m-46 -59 c28 0 56 5 63 12 9 9 13
7 18 -5 11 -29 -3 -48 -31 -43 -14 3 -25 0 -25 -5 0 -15 -42 -10 -63 8 -11 10
-17 12 -13 6 4 -8 1 -13 -9 -13 -19 0 -30 24 -21 47 5 12 9 14 18 5 7 -7 35
-12 63 -12z"/>
<path d="M66 101 c-4 -7 -5 -15 -2 -18 9 -9 19 4 14 18 -4 11 -6 11 -12 0z"/>
<path d="M110 96 c0 -9 5 -16 10 -16 6 0 10 4 10 9 0 6 -4 13 -10 16 -5 3 -10
-1 -10 -9z"/>
<path d="M85 30 c-3 -6 1 -7 9 -4 18 7 21 14 7 14 -6 0 -13 -4 -16 -10z"/>
</g>
</svg>
