<?xml version="1.0" standalone="no"?>
<!DOCTYPE svg PUBLIC "-//W3C//DTD SVG 20010904//EN"
 "http://www.w3.org/TR/2001/REC-SVG-20010904/DTD/svg10.dtd">
<svg version="1.0" xmlns="http://www.w3.org/2000/svg"
 width="17.000000pt" height="17.000000pt" viewBox="0 0 17.000000 17.000000"
 preserveAspectRatio="xMidYMid meet">
<metadata>
Created by potrace 1.16, written by Peter Selinger 2001-2019
</metadata>
<g transform="translate(0.000000,17.000000) scale(0.100000,-0.100000)"
fill="#000000" stroke="none">
<path d="M35 135 c-14 -13 -25 -36 -25 -50 0 -33 42 -75 75 -75 33 0 75 42 75
75 0 33 -42 75 -75 75 -14 0 -37 -11 -50 -25z m95 -5 c26 -26 26 -64 0 -90
-26 -26 -64 -26 -90 0 -40 40 -11 110 45 110 14 0 34 -9 45 -20z"/>
<path d="M50 110 c0 -5 5 -10 10 -10 6 0 10 5 10 10 0 6 -4 10 -10 10 -5 0
-10 -4 -10 -10z"/>
<path d="M100 110 c0 -5 5 -10 10 -10 6 0 10 5 10 10 0 6 -4 10 -10 10 -5 0
-10 -4 -10 -10z"/>
<path d="M49 58 c7 -10 24 -18 36 -18 12 0 29 8 36 18 11 14 11 15 -1 4 -18
-16 -52 -16 -70 1 -12 10 -12 9 -1 -5z"/>
</g>
</svg>
