<?xml version="1.0" standalone="no"?>
<!DOCTYPE svg PUBLIC "-//W3C//DTD SVG 20010904//EN"
 "http://www.w3.org/TR/2001/REC-SVG-20010904/DTD/svg10.dtd">
<svg version="1.0" xmlns="http://www.w3.org/2000/svg"
 width="23.000000pt" height="18.000000pt" viewBox="0 0 23.000000 18.000000"
 preserveAspectRatio="xMidYMid meet">
<metadata>
Created by potrace 1.16, written by Peter Selinger 2001-2019
</metadata>
<g transform="translate(0.000000,18.000000) scale(0.100000,-0.100000)"
fill="#000000" stroke="none">
<path d="M167 174 c-4 -4 -7 -20 -7 -36 0 -33 -4 -34 -37 -8 -34 27 -69 25
-98 -5 -31 -30 -32 -69 -2 -99 21 -21 32 -23 107 -22 l84 1 8 34 c5 18 6 41 2
50 -3 9 -7 32 -8 51 -1 27 -6 36 -21 38 -12 2 -24 0 -28 -4z m38 -15 c11 -16
-4 -59 -20 -59 -10 0 -15 10 -15 28 0 39 20 56 35 31z m-85 -39 c40 -40 11
-110 -45 -110 -32 0 -65 33 -65 65 0 32 33 65 65 65 14 0 34 -9 45 -20z m98
-47 c2 -8 -6 -13 -22 -13 -26 0 -40 12 -29 24 11 11 46 2 51 -11z m-40 -54
c15 0 21 -3 14 -6 -7 -3 -24 -2 -37 1 -18 5 -23 11 -17 24 6 16 7 16 10 0 2
-12 13 -18 30 -19z m32 21 c0 -5 -11 -10 -25 -10 -14 0 -25 5 -25 10 0 6 11
10 25 10 14 0 25 -4 25 -10z"/>
<path d="M90 100 c0 -5 5 -10 10 -10 6 0 10 5 10 10 0 6 -4 10 -10 10 -5 0
-10 -4 -10 -10z"/>
<path d="M38 93 c6 -2 18 -2 25 0 6 3 1 5 -13 5 -14 0 -19 -2 -12 -5z"/>
<path d="M108 62 c-8 -27 -52 -30 -67 -4 -6 9 -11 12 -11 7 0 -18 23 -35 46
-35 25 0 48 23 42 42 -3 7 -7 2 -10 -10z"/>
</g>
</svg>
