<?xml version="1.0" standalone="no"?>
<!DOCTYPE svg PUBLIC "-//W3C//DTD SVG 20010904//EN"
 "http://www.w3.org/TR/2001/REC-SVG-20010904/DTD/svg10.dtd">
<svg version="1.0" xmlns="http://www.w3.org/2000/svg"
 width="15.000000pt" height="15.000000pt" viewBox="0 0 15.000000 15.000000"
 preserveAspectRatio="xMidYMid meet">
<metadata>
Created by potrace 1.16, written by Peter Selinger 2001-2019
</metadata>
<g transform="translate(0.000000,15.000000) scale(0.100000,-0.100000)"
fill="#000000" stroke="none">
<path d="M25 125 c-14 -13 -25 -36 -25 -50 0 -33 42 -75 75 -75 33 0 75 42 75
75 0 14 -11 37 -25 50 -13 14 -36 25 -50 25 -14 0 -37 -11 -50 -25z m95 -5
c40 -40 11 -110 -45 -110 -32 0 -65 33 -65 65 0 32 33 65 65 65 14 0 34 -9 45
-20z"/>
<path d="M30 104 c-11 -12 -10 -18 3 -31 13 -13 19 -14 31 -3 11 8 16 9 16 1
0 -6 9 -11 20 -11 11 0 20 4 20 10 0 5 -6 7 -14 4 -7 -3 -21 6 -30 20 -19 30
-29 32 -46 10z m37 -10 c2 -5 -6 -10 -17 -10 -20 0 -25 7 -13 20 9 8 26 3 30
-10z"/>
<path d="M75 40 l-30 -8 27 -1 c15 0 30 4 33 9 3 6 5 9 3 9 -2 -1 -16 -5 -33
-9z"/>
</g>
</svg>
